<?xml version="1.0" encoding="utf-8"?>
<!-- Generator: Adobe Illustrator 21.1.0, SVG Export Plug-In . SVG Version: 6.00 Build 0)  -->
<svg version="1.1" id="レイヤー_1" xmlns="http://www.w3.org/2000/svg" xmlns:xlink="http://www.w3.org/1999/xlink" x="0px"
	 y="0px" width="16.6px" height="16px" viewBox="0 0 16.6 16" enable-background="new 0 0 16.6 16" xml:space="preserve">
<title>国道標識テスト</title>
<desc>Aithor: Lincun</desc>
<path fill="#B8C8D1" d="M13.7,0.9C10.2,0,6.4,0,2.9,0.9C1,1.4-0.2,3.4,0.3,5.3c0,0,0,0,0,0.1c1,3.5,2.8,6.7,5.4,9.3
	c1.4,1.4,3.7,1.4,5.1,0l0,0c2.6-2.6,4.4-5.8,5.4-9.3C16.8,3.5,15.7,1.5,13.7,0.9L13.7,0.9z M13.6,1.2C10.1,0.3,6.5,0.3,3,1.2
	c-1.8,0.5-2.8,2.3-2.4,4l0,0c1,3.5,2.8,6.7,5.3,9.3c1.3,1.3,3.4,1.3,4.7,0.1c0,0,0,0,0.1-0.1c2.5-2.6,4.4-5.8,5.3-9.3
	C16.5,3.5,15.4,1.7,13.6,1.2L13.6,1.2z M13.5,1.7c-3.4-0.9-7-0.9-10.4,0C1.6,2.1,0.8,3.6,1.1,5l0,0c0.9,3.4,2.7,6.5,5.2,9
	c1.1,1.1,2.8,1.1,3.9,0l0,0c2.5-2.5,4.2-5.6,5.2-9C15.8,3.7,15,2.2,13.5,1.7C13.5,1.8,13.5,1.7,13.5,1.7z"/>
</svg>
