<?xml version="1.0" encoding="utf-8"?>
<!-- Generator: Adobe Illustrator 21.1.0, SVG Export Plug-In . SVG Version: 6.00 Build 0)  -->
<svg version="1.1" id="レイヤー_1" xmlns="http://www.w3.org/2000/svg" xmlns:xlink="http://www.w3.org/1999/xlink" x="0px"
	 y="0px" width="22px" height="16px" viewBox="0 0 22 16" enable-background="new 0 0 22 16" xml:space="preserve">
<title>国道標識テスト</title>
<desc>Aithor: Lincun</desc>
<path fill="#438EFF" d="M17.5,0.9C13.2,0,8.8,0,4.5,0.9C2.2,1.4,0.8,3.4,1.4,5.3c0,0,0,0,0,0.1c1.2,3.5,3.4,6.7,6.5,9.3
	c1.7,1.4,4.4,1.4,6.2,0l0,0c3.1-2.6,5.3-5.8,6.5-9.3C21.3,3.5,19.9,1.5,17.5,0.9C17.6,0.9,17.6,0.9,17.5,0.9z M17.4,1.2
	c-4.2-0.9-8.7-0.9-12.9,0c-2.1,0.5-3.4,2.3-2.9,4l0,0C2.8,8.7,5,11.9,8,14.5c1.5,1.3,4.1,1.3,5.7,0.1c0,0,0.1,0,0.1-0.1
	c3.1-2.6,5.3-5.8,6.4-9.3C20.9,3.5,19.6,1.7,17.4,1.2C17.5,1.2,17.5,1.2,17.4,1.2z M17.3,1.7c-4.1-0.9-8.4-0.9-12.5,0
	C3,2.1,1.9,3.6,2.4,5.1l0,0c1.1,3.4,3.3,6.5,6.3,9c1.3,1.1,3.4,1.1,4.7,0l0,0c3-2.5,5.1-5.6,6.3-9C20.1,3.7,19.1,2.2,17.3,1.7
	C17.3,1.8,17.3,1.7,17.3,1.7z"/>
</svg>
